<svg height="511pt" viewBox="0 -27 511.99797 511" width="511pt" xmlns="http://www.w3.org/2000/svg"><path d="m137.46875 219.546875c-37.058594 7.484375-79.578125 25.089844-127.332031 58.425781 141.933593 99.082032 237.59375 59.207032 281.253906 27.605469" fill="#78e08f"/><path d="m373.296875 219.226562c37.058594 7.484376 80.8125 25.410157 128.566406 58.746094-141.933593 99.082032-237.59375 59.207032-281.253906 27.605469" fill="#78e08f"/><path d="m313.195312 133.75c16.378907-14.527344 36.675782-28.839844 61.730469-42.472656 0 0 59.058594 169.550781-116.1875 227.078125" fill="#ccfc5c"/><path d="m198.035156 133.75c-16.378906-14.527344-36.675781-28.839844-61.730468-42.472656 0 0-59.058594 169.550781 116.1875 227.078125" fill="#ccfc5c"/><path d="m261.09375 316.882812c17.777344-15.910156 123.015625-122.160156-5.492188-306.246093-128.507812 184.085937-23.265624 290.335937-5.492187 306.246093 1.515625 1.355469 3.460937 2.09375 5.492187 2.09375s3.980469-.738281 5.492188-2.09375zm0 0" fill="#ffdb72"/><path d="m507.667969 269.660156c-41.0625-28.664062-81.742188-48.078125-121.101563-57.828125 19.003906-61.859375-1.085937-121.078125-2.066406-123.890625-.980469-2.808594-3.144531-5.046875-5.917969-6.121094-2.777343-1.074218-5.886719-.871093-8.5.550782-18.945312 10.308594-36.050781 21.480468-51.070312 33.324218-10.265625-35.90625-28.75-73.117187-55.097657-110.863281-1.894531-2.714843-5-4.332031-8.3125-4.332031s-6.414062 1.617188-8.308593 4.332031c-26.34375 37.738281-44.828125 74.945313-55.097657 110.847657-15.011718-11.835938-32.113281-23.003907-51.046874-33.304688-2.613282-1.425781-5.71875-1.625-8.496094-.554688-2.777344 1.074219-4.941406 3.3125-5.921875 6.125s-21.113281 62.152344-2.007813 124.082032c-38.847656 9.59375-79.289062 28.945312-120.386718 57.636718-2.71875 1.894532-4.335938 4.996094-4.335938 8.308594s1.617188 6.417969 4.335938 8.3125c61.574218 42.984375 120.976562 64.742188 176.703124 64.742188 2.304688 0 4.613282-.039063 6.90625-.113282 26.445313-.859374 49.195313-6.652343 68.054688-14.277343 18.855469 7.625 41.609375 13.417969 68.050781 14.277343 2.296875.074219 4.597657.113282 6.90625.113282 55.726563 0 115.136719-21.761719 176.707031-64.742188 2.714844-1.894531 4.332032-5 4.332032-8.3125 0-3.308594-1.613282-6.414062-4.328125-8.3125zm-149.089844-42.0625c-13.019531 26.332032-34.011719 47.628906-62.617187 63.644532 10.382812-15.660157 20.898437-36.398438 27.097656-62.035157 7.019531-29.03125 7.421875-59.832031 1.222656-91.632812 12.914062-10.9375 27.761719-21.359375 44.34375-31.09375 5.351562 22.679687 13.203125 74.101562-10.046875 121.117187zm-102.976563-198.855468c24.101563 36.90625 40.121094 72.960937 47.671876 107.34375 6.773437 30.839843 6.796874 60.566406.078124 88.359374-11.214843 46.378907-37.9375 74.632813-47.75 83.730469-9.808593-9.097656-36.53125-37.351562-47.75-83.730469-6.71875-27.792968-6.691406-57.519531.078126-88.359374 7.554687-34.382813 23.570312-70.4375 47.671874-107.34375zm-112.972656 77.753906c16.5625 9.722656 31.394532 20.132812 44.300782 31.058594-6.207032 31.808593-5.804688 62.613281 1.21875 91.652343 6.195312 25.621094 16.703124 46.351563 27.078124 62.011719-28.527343-15.980469-49.476562-37.214844-62.496093-63.464844-23.261719-46.894531-15.429688-98.507812-10.101563-121.257812zm-114.367187 171.464844c35.597656-23.246094 70.375-38.945313 103.664062-46.8125.816407 1.816406 1.660157 3.628906 2.554688 5.4375 16.363281 33.089843 43.386719 59.042968 80.554687 77.46875 4.605469 3.316406 9.839844 6.773437 15.691406 10.183593-76.066406 21.714844-153.3125-14.359375-202.464843-46.277343zm253.386719 46.054687c5.851562-3.429687 11.09375-6.902344 15.6875-10.226563.339843-.246093.65625-.515624.957031-.796874 36.085937-18.355469 62.40625-43.945313 78.460937-76.410157.921875-1.871093 1.796875-3.746093 2.636719-5.621093 33.753906 8.019531 68.765625 23.785156 104.367187 47.015624-86.929687 56.792969-154.632812 59.402344-202.109374 46.039063zm0 0"/><path d="m100.726562 383.527344c-2.414062-1.410156-5.003906-2.125-7.691406-2.125-5 0-6.515625 2.785156-6.960937 4.402344l-12.0625 40.714843-5.570313-23.832031c-.277344-1.316406-1.144531-3.15625-3.695312-4.433594-1.714844-.855468-3.632813-1.289062-5.695313-1.289062-2.070312 0-3.988281.433594-5.699219 1.292968-2.550781 1.273438-3.417968 3.113282-3.683593 4.382813l-5.582031 23.878906-12.054688-40.675781c-.457031-1.660156-1.972656-4.441406-6.96875-4.441406-2.691406 0-5.28125.714844-7.691406 2.125-2.808594 1.644531-4.234375 3.6875-4.234375 6.074218 0 .691407.105469 1.351563.304687 1.949219l18.992188 58.226563c.710937 2.214844 2.304687 3.914062 4.742187 5.046875 2.140625.996093 4.585938 1.5 7.265625 1.5 2.675782 0 5.121094-.503907 7.265625-1.5 3.113281-1.449219 4.214844-3.632813 4.605469-5.253907l2.738281-12.476562 2.746094 12.515625c.375 1.582031 1.480469 3.765625 4.59375 5.214844 2.140625.996093 4.585937 1.5 7.265625 1.5 2.683594 0 5.117188-.507813 7.230469-1.507813 2.367187-1.121094 3.96875-2.792968 4.769531-5.027344l18.996094-58.226562c.203125-.613281.308594-1.273438.308594-1.960938 0-2.386718-1.425782-4.429687-4.234376-6.074218zm0 0"/><path d="m153.375 398.949219c2.199219 0 4.007812-1.03125 5.226562-2.984375 1.023438-1.632813 1.542969-3.613282 1.542969-5.886719 0-2.128906-.496093-4.03125-1.472656-5.660156-1.183594-1.972657-3.015625-3.015625-5.296875-3.015625h-33.988281c-2.207031 0-4.15625.515625-5.792969 1.539062-1.949219 1.21875-2.980469 3.0625-2.980469 5.324219v60.625c0 2.265625 1.035157 4.105469 2.980469 5.320313 1.632812 1.023437 3.582031 1.542968 5.792969 1.542968h33.988281c2.28125 0 4.113281-1.042968 5.296875-3.015625.976563-1.625 1.472656-3.53125 1.472656-5.664062 0-2.265625-.519531-4.246094-1.542969-5.886719-1.21875-1.949219-3.027343-2.980469-5.226562-2.980469h-23.304688v-11.667969h12.039063c2.234375 0 4.046875-.945312 5.242187-2.734374 1.011719-1.523438 1.527344-3.265626 1.527344-5.179688 0-2.054688-.539062-3.875-1.601562-5.40625-1.226563-1.765625-3.015625-2.695312-5.167969-2.695312h-12.039063v-11.574219zm0 0"/><path d="m205.789062 438.207031h-19.488281v-50.035156c0-2.308594-1.214843-4.214844-3.421875-5.367187-1.785156-.929688-3.90625-1.402344-6.308594-1.402344-2.398437 0-4.519531.472656-6.300781 1.402344-2.210937 1.152343-3.425781 3.054687-3.425781 5.367187v60.71875c0 2.265625 1.03125 4.105469 2.980469 5.320313 1.632812 1.023437 3.582031 1.542968 5.792969 1.542968h30.167968c1.503906 0 3.613282-.523437 5.105469-3.015625.976563-1.625 1.472656-3.5625 1.472656-5.757812 0-2.191407-.496093-4.128907-1.472656-5.753907-1.164063-1.945312-2.976563-3.019531-5.101563-3.019531zm0 0"/><path d="m257.53125 438.207031h-19.484375v-50.035156c0-2.308594-1.21875-4.214844-3.421875-5.367187-1.789062-.929688-3.910156-1.402344-6.308594-1.402344-2.398437 0-4.523437.472656-6.304687 1.402344-2.207031 1.152343-3.421875 3.054687-3.421875 5.367187v60.71875c0 2.265625 1.03125 4.105469 2.980468 5.320313 1.632813 1.023437 3.582032 1.542968 5.792969 1.542968h30.167969c1.503906 0 3.613281-.523437 5.105469-3.015625.976562-1.625 1.472656-3.5625 1.472656-5.757812 0-2.191407-.496094-4.128907-1.472656-5.753907-1.164063-1.945312-2.976563-3.019531-5.105469-3.019531zm0 0"/><path d="m320.261719 382.804688c-1.785157-.929688-3.90625-1.402344-6.304688-1.402344-2.402343 0-4.523437.472656-6.304687 1.402344-2.207032 1.152343-3.421875 3.054687-3.421875 5.367187v23.195313l-11.164063-21.289063c-1.960937-3.773437-3.699218-6.03125-5.476562-7.105469-1.75-1.058594-4.210938-1.570312-7.527344-1.570312-2.410156 0-4.542969.492187-6.339844 1.46875-2.183594 1.191406-3.386718 3.105468-3.386718 5.394531v60.625c0 2.292969 1.203124 4.207031 3.386718 5.390625 1.792969.976562 3.925782 1.472656 6.339844 1.472656s4.546875-.496094 6.339844-1.472656c2.1875-1.183594 3.390625-3.101562 3.390625-5.390625v-23.570313l13.855469 25.238282c1.886718 3.445312 5.355468 5.195312 10.308593 5.195312 2.414063 0 4.546875-.496094 6.339844-1.46875 2.183594-1.1875 3.386719-3.105468 3.386719-5.394531v-60.71875c0-2.308594-1.214844-4.214844-3.421875-5.367187zm0 0"/><path d="m376.96875 398.949219c2.199219 0 4.007812-1.03125 5.226562-2.984375 1.023438-1.632813 1.539063-3.613282 1.539063-5.886719 0-2.128906-.496094-4.03125-1.46875-5.660156-1.1875-1.972657-3.019531-3.015625-5.296875-3.015625h-33.988281c-2.210938 0-4.160157.515625-5.792969 1.539062-1.949219 1.21875-2.980469 3.0625-2.980469 5.324219v60.625c0 2.265625 1.03125 4.105469 2.980469 5.320313 1.632812 1.023437 3.582031 1.542968 5.792969 1.542968h33.988281c2.28125 0 4.113281-1.042968 5.296875-3.015625.972656-1.625 1.46875-3.53125 1.46875-5.664062 0-2.265625-.515625-4.246094-1.539063-5.886719-1.222656-1.949219-3.027343-2.980469-5.226562-2.980469h-23.308594v-11.667969h12.042969c2.230469 0 4.042969-.945312 5.238281-2.734374 1.015625-1.523438 1.527344-3.265626 1.527344-5.179688 0-2.054688-.539062-3.875-1.601562-5.40625-1.226563-1.765625-3.011719-2.695312-5.164063-2.695312h-12.042969v-11.574219zm0 0"/><path d="m429.769531 414.921875c-2.308593-1.679687-4.863281-3.253906-7.597656-4.671875-2.707031-1.398438-5.238281-2.558594-7.535156-3.441406-1.996094-.769532-3.664063-1.695313-4.972657-2.75-1.394531-1.128906-1.394531-1.960938-1.394531-2.234375 0-.558594.160157-1.3125 1.414063-2.1875 1.175781-.824219 3.203125-1.261719 5.851562-1.261719 2.625 0 5.054688.53125 7.210938 1.585938 3.695312 1.800781 5.042968 2.042968 5.871094 2.042968 1.859374 0 4.46875-.667968 6.316406-3.851562 1.246094-2.15625 1.882812-4.304688 1.882812-6.382813 0-2.414062-1.015625-4.574219-2.933594-6.246093-1.703124-1.480469-3.882812-2.554688-6.488281-3.199219-2.34375-.578125-4.5-.976563-6.410156-1.183594-1.882813-.207031-3.71875-.308594-5.449219-.308594-7.191406 0-13.445312 1.824219-18.585937 5.421875-5.398438 3.78125-8.136719 9.5-8.136719 17.003906 0 4.589844 1.179688 8.621094 3.507812 11.988282 2.261719 3.273437 5.082032 5.839844 8.378907 7.628906 3.039062 1.648438 6.097656 3.152344 9.09375 4.472656 2.777343 1.226563 5.15625 2.59375 7.074219 4.066406 1.984374 1.527344 2.214843 2.859376 2.214843 3.730469 0 1.277344-.484375 2.097657-1.617187 2.742188-1.492188.847656-3.292969 1.277343-5.363282 1.277343-1.652343 0-3.242187-.324218-4.726562-.96875-1.53125-.660156-2.703125-1.375-3.488281-2.128906-1.078125-1.023437-2.277344-1.972656-3.570313-2.820312-1.550781-1.011719-3.046875-1.527344-4.449218-1.527344-1.703126 0-4.191407.625-6.375 3.605469-1.589844 2.175781-2.394532 4.425781-2.394532 6.695312 0 4.058594 2.707032 7.621094 8.046875 10.585938 4.902344 2.722656 10.703125 4.105469 17.242188 4.105469 7.644531 0 13.949219-2.023438 18.738281-6.011719 4.917969-4.09375 7.410156-9.839844 7.410156-17.082031 0-4.097657-.839844-7.820313-2.492187-11.0625-1.65625-3.238282-3.765625-5.804688-6.273438-7.632813zm0 0"/><path d="m485.425781 414.921875c-2.304687-1.679687-4.859375-3.253906-7.597656-4.671875-2.703125-1.398438-5.238281-2.558594-7.53125-3.441406-1.996094-.769532-3.667969-1.695313-4.972656-2.75-1.394531-1.128906-1.394531-1.960938-1.394531-2.234375 0-.558594.160156-1.3125 1.414062-2.1875 1.175781-.824219 3.199219-1.261719 5.851562-1.261719 2.625 0 5.050782.53125 7.210938 1.585938 3.695312 1.800781 5.039062 2.042968 5.867188 2.042968 1.863281 0 4.472656-.667968 6.316406-3.851562 1.25-2.15625 1.882812-4.304688 1.882812-6.382813 0-2.414062-1.011718-4.574219-2.929687-6.246093-1.703125-1.480469-3.882813-2.554688-6.488281-3.199219-2.34375-.578125-4.503907-.976563-6.410157-1.183594-1.882812-.207031-3.71875-.308594-5.449219-.308594-7.191406 0-13.445312 1.824219-18.589843 5.421875-5.394531 3.78125-8.132813 9.5-8.132813 17.003906 0 4.589844 1.179688 8.621094 3.507813 11.988282 2.261719 3.273437 5.082031 5.839844 8.378906 7.628906 3.039063 1.648438 6.097656 3.152344 9.09375 4.472656 2.777344 1.226563 5.15625 2.59375 7.074219 4.066406 1.980468 1.527344 2.210937 2.859376 2.210937 3.730469 0 1.277344-.480469 2.097657-1.613281 2.742188-1.492188.847656-3.296875 1.277343-5.367188 1.277343-1.652343 0-3.242187-.324218-4.726562-.96875-1.527344-.660156-2.699219-1.375-3.484375-2.128906-1.078125-1.023437-2.28125-1.972656-3.570313-2.820312-1.550781-1.011719-3.046874-1.527344-4.449218-1.527344-1.703125 0-4.191406.625-6.375 3.605469-1.589844 2.175781-2.398438 4.425781-2.398438 6.695312 0 4.058594 2.710938 7.621094 8.046875 10.585938 4.90625 2.722656 10.707031 4.105469 17.246094 4.105469 7.640625 0 13.945313-2.023438 18.738281-6.011719 4.917969-4.09375 7.410156-9.839844 7.410156-17.082031 0-4.097657-.839843-7.820313-2.496093-11.0625-1.652344-3.238282-3.761719-5.804688-6.273438-7.632813zm0 0"/><path d="m89.480469 153.921875c.269531 0 .539062-.011719.8125-.03125 5.582031-.441406 9.746093-5.324219 9.304687-10.90625-1.558594-19.695313 1.785156-38.550781 9.9375-56.046875 2.367188-5.074219.167969-11.105469-4.90625-13.46875-5.078125-2.363281-11.105468-.167969-13.46875 4.90625-9.515625 20.414062-13.585937 43.308594-11.773437 66.210938.421875 5.308593 4.859375 9.335937 10.09375 9.335937zm0 0"/><path d="m91.925781 172.078125c-5.453125 1.269531-8.84375 6.722656-7.570312 12.171875l.089843.378906c1.089844 4.679688 5.257813 7.835938 9.859376 7.835938.765624 0 1.539062-.085938 2.3125-.265625 5.453124-1.273438 8.839843-6.722657 7.570312-12.175781l-.089844-.378907c-1.269531-5.449219-6.71875-8.839843-12.171875-7.566406zm0 0"/><path d="m383.054688 301.691406c1.324218 4.382813 5.347656 7.207032 9.699218 7.207032.972656 0 1.960938-.140626 2.9375-.4375 20.214844-6.109376 38.015625-14.617188 46.824219-19.140626 4.980469-2.558593 6.945313-8.671874 4.386719-13.648437-2.558594-4.984375-8.671875-6.945313-13.648438-4.386719-8.203125 4.210938-24.75 12.125-43.429687 17.769532-5.355469 1.621093-8.386719 7.277343-6.769531 12.636718zm0 0"/><path d="m363.15625 306.96875c-.988281-5.511719-6.257812-9.183594-11.765625-8.191406-5.511719.988281-9.179687 6.257812-8.1875 11.765625l.066406.382812c.878907 4.90625 5.148438 8.347657 9.964844 8.347657.59375 0 1.195313-.050782 1.800781-.160157 5.511719-.988281 9.175782-6.253906 8.1875-11.765625zm0 0"/></svg>